<svg width="64" height="64" viewBox="0 0 64 64" fill="none" xmlns="http://www.w3.org/2000/svg">
  <!-- Background circle -->
  <circle cx="32" cy="32" r="32" fill="#1a1a1a"/>
  
  <!-- Stylized "G" for Genrec -->
  <path d="M32 16C23.1634 16 16 23.1634 16 32C16 40.8366 23.1634 48 32 48C36.4183 48 40.4183 46.2091 43.3137 43.3137L38.6274 38.6274C36.9411 40.3137 34.5959 41.3333 32 41.3333C26.8457 41.3333 22.6667 37.1543 22.6667 32C22.6667 26.8457 26.8457 22.6667 32 22.6667C34.5959 22.6667 36.9411 23.6863 38.6274 25.3726H32V32H48C48 23.1634 40.8366 16 32 16Z" fill="#8B7355"/>
  
  <!-- Accent dot -->
  <circle cx="46" cy="18" r="4" fill="#A0826D"/>
</svg>
